<svg width="219" height="160" viewBox="0 0 219 160" fill="none" xmlns="http://www.w3.org/2000/svg">
<path d="M133.655 46.94H123.488V51.236H133.655V46.94Z" fill="#EBEBEB"/>
<path d="M127.983 52.358H117.816V56.654H127.983V52.358Z" fill="#EBEBEB"/>
<path d="M139.326 52.358H129.159V56.654H139.326V52.358Z" fill="#EBEBEB"/>
<path d="M175.827 87.641H165.66V91.937H175.827V87.641Z" fill="#EBEBEB"/>
<path d="M175.827 6.228H165.66V10.524H175.827V6.228Z" fill="#EBEBEB"/>
<path d="M181.499 11.645H171.332V15.941H181.499V11.645Z" fill="#EBEBEB"/>
<path d="M165.185 32.065H97.024V35.054H165.185V32.065Z" fill="#EBEBEB"/>
<path d="M103.835 35.055H100.845V44.941H103.835V35.055Z" fill="#EBEBEB"/>
<path d="M103.835 35.055H100.845V38.111H103.835V35.055Z" fill="#DBDBDB"/>
<path d="M161.366 35.055H158.376V44.941H161.366V35.055Z" fill="#EBEBEB"/>
<path d="M161.366 35.055H158.376V38.111H161.366V35.055Z" fill="#DBDBDB"/>
<path d="M114.544 32.066V13.016H109.747V32.066H114.544Z" fill="#C7C7C7"/>
<path d="M114.544 14.09V11.997H109.747V14.09H114.544Z" fill="#DBDBDB"/>
<path d="M114.544 17.55V16.773H109.747V17.55H114.544Z" fill="#DBDBDB"/>
<path d="M115.142 29.567V27.474H109.747V29.567H115.142Z" fill="#DBDBDB"/>
<path d="M117.897 32.066V9.84399H114.544V32.066H117.897Z" fill="#DBDBDB"/>
<path d="M117.212 20.48V11.933H115.2V20.48H117.212Z" fill="#EBEBEB"/>
<path d="M141.75 29.6855L125.945 14.064L123.588 16.4487L139.393 32.0702L141.75 29.6855Z" fill="#C7C7C7"/>
<path d="M137.575 26.4885L131.498 20.48L130.084 21.9105L136.161 27.9191L137.575 26.4885Z" fill="#DBDBDB"/>
<path d="M123.589 32.069V15.19H117.895V32.069H123.589Z" fill="#A6A6A6"/>
<path d="M123.589 30.28V28.707H117.895V30.28H123.589Z" fill="#C7C7C7"/>
<path d="M123.589 27.674V27.064H117.895V27.674H123.589Z" fill="#C7C7C7"/>
<path d="M109.747 32.07V16.207H105.814V32.07H109.747Z" fill="#A6A6A6"/>
<path d="M109.747 30.388V28.91H105.814V30.388H109.747Z" fill="#C7C7C7"/>
<path d="M109.747 20.955V19.477H105.814V20.955H109.747Z" fill="#C7C7C7"/>
<path d="M109.747 22.541V21.968H105.814V22.541H109.747Z" fill="#C7C7C7"/>
<path d="M158.019 24.674L157.59 25.806L157.329 26.496L156.9 27.632L155.225 32.068H146.168L144.489 27.632L144.06 26.496L143.799 25.806L143.37 24.674L146.712 19.808L144.98 16.597H156.418L154.678 19.808L158.019 24.674Z" fill="#DBDBDB"/>
<path d="M158.019 24.674L157.59 25.806H143.799L143.37 24.674H158.019Z" fill="#A6A6A6"/>
<path d="M157.324 26.495L156.895 27.631H144.489L144.06 26.495H157.324Z" fill="#A6A6A6"/>
<path d="M78.4 0.395996H27.328V78.706H78.4V0.395996Z" fill="#EBEBEB"/>
<path d="M51.677 3.533H30.111V38.365H51.677V3.533Z" fill="white"/>
<path d="M75.6159 3.533H54.0499V38.365H75.6159V3.533Z" fill="white"/>
<path d="M51.677 40.738H30.111V75.57H51.677V40.738Z" fill="white"/>
<path d="M75.6159 40.738H54.0499V75.57H75.6159V40.738Z" fill="white"/>
<path d="M39.424 0.395996H27.328V112.432H39.424V0.395996Z" fill="#DBDBDB"/>
<path d="M37.131 5.723L37.224 17.837L37.258 29.95L37.322 54.177L37.258 78.404L37.224 90.518L37.13 102.632L37.036 90.518L37.001 78.405L36.937 54.178L37.001 29.95L37.035 17.836L37.131 5.723Z" fill="#EBEBEB"/>
<path d="M31.576 8.53199L31.669 19.348L31.723 30.164L31.768 51.797L31.724 73.43L31.67 84.243L31.576 95.059L31.482 84.243L31.428 73.427L31.384 51.794L31.429 30.161L31.483 19.345L31.576 8.53199Z" fill="#EBEBEB"/>
<path d="M34.357 11.085L34.45 23.75L34.484 36.415L34.548 61.745L34.484 87.076L34.448 99.745L34.357 112.407L34.257 99.745L34.223 87.08L34.162 61.745L34.226 36.415L34.257 23.75L34.357 11.085Z" fill="#EBEBEB"/>
<path d="M29.511 6.36099L29.604 19.617L29.638 32.873L29.702 59.385L29.638 85.897L29.604 99.153L29.51 112.409L29.416 99.153L29.382 85.897L29.318 59.385L29.382 32.873L29.416 19.617L29.511 6.36099Z" fill="#EBEBEB"/>
<path d="M66.3029 112.432H78.3989L78.3989 0.395996H66.3029L66.3029 112.432Z" fill="#DBDBDB"/>
<path d="M68.5969 5.723L68.6899 17.837L68.7239 29.95L68.7879 54.177L68.7239 78.404L68.6899 90.518L68.5959 102.632L68.5019 90.518L68.4679 78.404L68.4039 54.177L68.4679 29.95L68.5019 17.836L68.5969 5.723Z" fill="#EBEBEB"/>
<path d="M74.151 8.53199L74.244 19.348L74.298 30.164L74.343 51.797L74.299 73.43L74.245 84.246L74.151 95.062L74.057 84.246L74.002 73.431L73.958 51.798L74.002 30.165L74.056 19.349L74.151 8.53199Z" fill="#EBEBEB"/>
<path d="M71.374 11.085L71.467 23.75L71.501 36.415L71.565 61.745L71.501 87.076L71.468 99.745L71.374 112.41L71.28 99.745L71.246 87.08L71.182 61.749L71.246 36.419L71.28 23.754L71.374 11.085Z" fill="#EBEBEB"/>
<path d="M76.2169 6.36099L76.3099 19.617L76.3439 32.873L76.4079 59.385L76.3439 85.897L76.3099 99.153L76.2159 112.409L76.1219 99.153L76.0879 85.897L76.0239 59.385L76.0879 32.873L76.1219 19.617L76.2169 6.36099Z" fill="#EBEBEB"/>
<path d="M1 112.518H217.739" stroke="#263238" stroke-linecap="round" stroke-linejoin="round"/>
<path d="M107.266 152.751C158.467 152.751 199.974 147.583 199.974 141.209C199.974 134.835 158.467 129.667 107.266 129.667C56.0648 129.667 14.558 134.835 14.558 141.209C14.558 147.583 56.0648 152.751 107.266 152.751Z" fill="#EBEBEB"/>
<path d="M154.684 119.857H63.684L92.257 53.168H183.257L154.684 119.857Z" fill="#263238"/>
<path d="M92.93 54.59H182.647L154.684 119.857H65.307L92.93 54.59Z" fill="#EBEBEB"/>
<path d="M92.93 54.59C93.2942 60.8779 92.5733 67.1816 90.799 73.225C87.871 82.802 73.364 101.979 70.542 114.914L65.307 119.856H154.684L182.647 54.589L92.93 54.59Z" fill="#DBDBDB"/>
<path d="M92.9301 54.59C92.8471 55.557 91.9041 68.365 88.1531 76.639C83.9711 85.864 73.8811 100.624 70.1431 114.153" stroke="#DBDBDB" stroke-miterlimit="10"/>
<path d="M92.016 58.463C91.0245 65.1504 89.0396 71.6521 86.127 77.753C81.327 87.74 73.06 100.311 69.212 116.175" stroke="#DBDBDB" stroke-miterlimit="10"/>
<path d="M121.32 123.557H208.71L179.13 54.59H92.93C92.93 54.59 92.591 65.031 98.31 80.139C103.697 94.372 113.662 102.928 121.32 123.557Z" fill="white"/>
<path d="M120.807 123.557C113.5 105.382 102.849 95.835 97.3709 82.699C93.1209 72.507 92.9299 54.59 92.9299 54.59" stroke="white" stroke-width="2" stroke-miterlimit="10"/>
<path d="M93.786 56.581C93.786 56.581 95.856 73.31 103.612 87.223C111.368 101.136 115.184 106.342 119.212 115.86" stroke="#EBEBEB" stroke-miterlimit="10"/>
<path d="M123.12 124.979H214.12L183.32 53.167H92.3199L123.12 124.979Z" fill="#346AE1"/>
<path d="M181.855 124.979H201.876L171.076 53.167H151.055L181.855 124.979Z" fill="#2B62D9"/>
<path d="M132.583 124.979H139.833L109.033 53.167H101.783L132.583 124.979Z" fill="#2B62D9"/>
<path d="M92.9299 54.59H183.93L184.896 52.314H91.3109L92.9299 54.59Z" fill="#2B62D9"/>
<path d="M52.782 148.626L17.975 139.461L1.78198 148.141L35.829 159.487L52.782 148.626Z" fill="#8DA8DF"/>
<path d="M50.623 148.469L35.101 158.447L3.19202 147.839L18.848 139.524C18.848 139.524 28.397 140.781 28.842 140.924C29.287 141.067 33.498 142.811 33.498 142.811C33.498 142.811 39.406 143.839 39.807 143.973C40.208 144.107 50.623 148.469 50.623 148.469Z" fill="white"/>
<path d="M33.498 142.806C32.2753 143.685 31.0457 144.554 29.809 145.412L26.086 147.969L22.334 150.482C21.0793 151.315 19.817 152.135 18.547 152.944C19.769 152.065 20.9987 151.196 22.236 150.338L25.959 147.782L29.712 145.27C30.966 144.437 32.228 143.615 33.498 142.806Z" fill="#DBDBDB"/>
<path d="M47.205 148.377C46.0717 147.932 44.9423 147.478 43.817 147.013L40.447 145.613L39.606 145.26C39.466 145.204 39.323 145.143 39.189 145.097C39.055 145.051 38.895 145.026 38.748 144.99L36.973 144.573C35.791 144.291 34.611 143.995 33.433 143.685C34.6297 143.912 35.8243 144.151 37.017 144.404L38.804 144.791C38.953 144.826 39.104 144.851 39.251 144.891C39.398 144.931 39.543 145 39.687 145.056L40.533 145.4C41.653 145.88 42.772 146.357 43.884 146.854C44.996 147.351 46.104 147.856 47.205 148.377Z" fill="#DBDBDB"/>
<path d="M46.124 149.015C44.9907 148.57 43.8614 148.116 42.736 147.651L39.366 146.251L38.525 145.898C38.385 145.842 38.242 145.781 38.109 145.735C37.976 145.689 37.814 145.664 37.668 145.628L35.893 145.211C34.711 144.929 33.531 144.633 32.353 144.323C33.5497 144.55 34.7444 144.789 35.937 145.042L37.724 145.429C37.873 145.464 38.024 145.489 38.171 145.529C38.318 145.569 38.463 145.638 38.607 145.694L39.453 146.039C40.573 146.518 41.692 146.996 42.804 147.492C43.916 147.988 45.023 148.494 46.124 149.015Z" fill="#DBDBDB"/>
<path d="M45.042 149.653C43.934 149.218 42.83 148.774 41.73 148.32L38.436 146.948L37.615 146.603C37.3496 146.48 37.0743 146.38 36.792 146.303L35.059 145.888C33.9017 145.612 32.7467 145.325 31.594 145.028C32.7647 145.242 33.9313 145.471 35.094 145.716C35.678 145.834 36.257 145.967 36.839 146.102C37.1321 146.178 37.4185 146.279 37.695 146.402L38.521 146.741C39.614 147.211 40.709 147.677 41.795 148.163C42.881 148.649 43.964 149.143 45.042 149.653Z" fill="#DBDBDB"/>
<path d="M43.961 150.289C42.869 149.86 41.781 149.423 40.697 148.976L37.451 147.623C36.912 147.406 36.368 147.148 35.834 146.97L34.128 146.559C32.988 146.285 31.85 146.001 30.714 145.708C31.8687 145.917 33.0197 146.143 34.167 146.384C34.742 146.503 35.312 146.631 35.887 146.768C36.467 146.956 36.987 147.193 37.537 147.416C38.614 147.88 39.694 148.338 40.763 148.816C41.832 149.294 42.9 149.788 43.961 150.289Z" fill="#DBDBDB"/>
<path d="M42.879 150.928C41.791 150.501 40.7067 150.064 39.626 149.619L36.391 148.271C35.854 148.053 35.311 147.801 34.781 147.617C34.223 147.471 33.648 147.347 33.081 147.206C31.9477 146.933 30.8144 146.65 29.681 146.357C30.8317 146.564 31.979 146.789 33.123 147.03C33.696 147.15 34.263 147.276 34.838 147.414C35.413 147.609 35.938 147.84 36.48 148.064C37.553 148.526 38.629 148.983 39.695 149.464C40.761 149.945 41.822 150.428 42.879 150.928Z" fill="#DBDBDB"/>
<path d="M41.798 151.564C40.7133 151.138 39.6326 150.705 38.556 150.264L35.331 148.92C34.796 148.702 34.254 148.454 33.731 148.264C33.176 148.118 32.602 147.993 32.038 147.854C30.9046 147.581 29.7743 147.299 28.647 147.007C29.7936 147.214 30.9373 147.437 32.078 147.677C32.649 147.797 33.214 147.921 33.788 148.061C34.358 148.261 34.881 148.488 35.422 148.713C36.492 149.175 37.565 149.629 38.627 150.107C39.689 150.585 40.745 151.065 41.798 151.564Z" fill="#DBDBDB"/>
<path d="M40.7161 152.202C39.6451 151.781 38.5771 151.355 37.5161 150.915L34.3341 149.589C33.8041 149.374 33.2731 149.134 32.7481 148.934C32.2161 148.773 31.6391 148.659 31.0861 148.52C29.9691 148.249 28.8531 147.973 27.7411 147.681C28.8744 147.881 30.0031 148.101 31.1271 148.34C31.6921 148.465 32.2461 148.571 32.8161 148.734C33.3661 148.94 33.8901 149.158 34.4211 149.384C35.4771 149.84 36.5361 150.284 37.5831 150.761C38.6301 151.238 39.6761 151.71 40.7161 152.202Z" fill="#DBDBDB"/>
<path d="M39.6351 152.839C38.5641 152.418 37.4961 151.992 36.4351 151.552L33.2521 150.229C32.7221 150.014 32.1911 149.774 31.6661 149.574C31.1331 149.413 30.5571 149.299 30.0041 149.16C28.8871 148.889 27.7711 148.613 26.6581 148.321C27.7914 148.521 28.9201 148.741 30.0441 148.98C30.6091 149.105 31.1631 149.211 31.7331 149.373C32.2841 149.579 32.8071 149.797 33.3391 150.023C34.3951 150.479 35.4531 150.923 36.5011 151.4C37.5491 151.877 38.5951 152.347 39.6351 152.839Z" fill="#DBDBDB"/>
<path d="M38.736 153.571C37.651 153.141 36.568 152.706 35.491 152.257L32.264 150.905L30.653 150.232C30.124 150.056 29.532 149.948 28.972 149.805C27.838 149.53 26.705 149.25 25.572 148.954C26.7214 149.159 27.867 149.382 29.009 149.623C29.582 149.755 30.144 149.851 30.724 150.034C31.273 150.248 31.811 150.468 32.347 150.7C33.417 151.165 34.491 151.621 35.554 152.1C36.617 152.579 37.682 153.071 38.736 153.571Z" fill="#DBDBDB"/>
<path d="M37.6531 154.232C36.5711 153.8 35.4921 153.364 34.4191 152.913L31.2021 151.556L29.5961 150.88C29.0721 150.698 28.4791 150.594 27.9211 150.45C26.7901 150.175 25.6601 149.896 24.5331 149.6C25.6797 149.804 26.8227 150.027 27.9621 150.268C28.5331 150.402 29.0941 150.492 29.6731 150.682C30.2171 150.898 30.7551 151.117 31.2891 151.351C32.3561 151.818 33.4271 152.275 34.4891 152.759C35.5511 153.243 36.6021 153.73 37.6531 154.232Z" fill="#DBDBDB"/>
<path d="M36.5661 154.945C35.5191 154.516 34.4721 154.084 33.4331 153.637C32.3941 153.19 31.3571 152.737 30.3161 152.292L28.7601 151.62C28.5081 151.503 28.2437 151.415 27.9721 151.357L27.1481 151.157C26.0481 150.888 24.9481 150.616 23.8561 150.324C24.9714 150.519 26.0831 150.734 27.1911 150.969L28.0201 151.155C28.1581 151.189 28.2961 151.216 28.4381 151.261C28.5801 151.306 28.7101 151.361 28.8381 151.418C29.3634 151.634 29.8841 151.857 30.4001 152.087C31.4331 152.55 32.4711 153.002 33.5001 153.487C34.5291 153.972 35.5481 154.449 36.5661 154.945Z" fill="#DBDBDB"/>
<path d="M35.4881 155.535C34.4221 155.147 33.3581 154.756 32.3001 154.349C31.2421 153.942 30.1861 153.528 29.1281 153.124C28.6001 152.924 28.0681 152.704 27.5471 152.524L25.9161 152.044C24.8321 151.713 23.7491 151.374 22.6731 151.015C23.7731 151.281 24.8731 151.567 25.9731 151.861L27.6111 152.318C28.1651 152.5 28.6831 152.71 29.2111 152.918C30.2631 153.341 31.3191 153.753 32.3631 154.196C33.4071 154.639 34.4491 155.081 35.4881 155.535Z" fill="#DBDBDB"/>
<path d="M19.856 150.37C18.842 150.017 17.841 149.633 16.846 149.238L16.097 148.952C15.8514 148.854 15.5991 148.774 15.342 148.712L13.791 148.287L10.691 147.418C9.65803 147.129 8.63203 146.818 7.60303 146.518C8.64403 146.776 9.68803 147.018 10.725 147.291L13.838 148.091L15.392 148.503C15.6565 148.566 15.917 148.644 16.172 148.738C16.425 148.831 16.672 148.938 16.921 149.038C17.9177 149.445 18.896 149.889 19.856 150.37Z" fill="#DBDBDB"/>
<path d="M20.906 149.548C19.906 149.256 18.917 148.941 17.939 148.604C17.447 148.444 16.956 148.264 16.468 148.122L14.968 147.699L11.977 146.835C10.977 146.55 9.989 146.235 8.995 145.935C10 146.191 11.01 146.435 12.012 146.702L15.02 147.502C16.0304 147.75 17.0271 148.05 18.006 148.402C18.986 148.752 19.951 149.137 20.906 149.548Z" fill="#DBDBDB"/>
<path d="M21.918 148.817C20.928 148.528 19.944 148.217 18.97 147.887L17.509 147.401L16.014 147.023L13.022 146.254C12.022 145.999 11.032 145.718 10.037 145.454C11.043 145.678 12.052 145.888 13.055 146.125L16.065 146.831L17.565 147.197C18.065 147.344 18.545 147.526 19.033 147.697C20.006 148.035 20.968 148.416 21.918 148.817Z" fill="#DBDBDB"/>
<path d="M22.784 148.276C21.804 147.932 20.853 147.519 19.895 147.137C19.6635 147.034 19.4232 146.951 19.177 146.891L18.42 146.72L16.904 146.384C14.8827 145.932 12.8643 145.465 10.849 144.984C12.8857 145.366 14.919 145.768 16.949 146.19L18.469 146.514L19.229 146.679C19.4877 146.736 19.74 146.819 19.982 146.926C20.9393 147.326 21.8746 147.777 22.784 148.276Z" fill="#DBDBDB"/>
<path d="M23.733 147.617C22.753 147.272 21.802 146.859 20.844 146.478C20.6125 146.375 20.3722 146.293 20.126 146.233L19.369 146.061L17.853 145.729C15.8316 145.277 13.8133 144.81 11.798 144.329C13.8346 144.711 15.868 145.113 17.898 145.535L19.418 145.859L20.178 146.025C20.4366 146.082 20.6889 146.165 20.931 146.272C21.8881 146.67 22.8234 147.119 23.733 147.617Z" fill="#DBDBDB"/>
<path d="M24.681 146.957C23.701 146.613 22.75 146.199 21.792 145.818C21.5604 145.715 21.3202 145.633 21.074 145.572L20.317 145.401L18.801 145.066C16.7797 144.613 14.761 144.147 12.745 143.666C14.7817 144.048 16.815 144.45 18.845 144.872L20.365 145.196L21.125 145.361C21.3837 145.418 21.6359 145.501 21.878 145.608C22.8357 146.007 23.7714 146.458 24.681 146.957Z" fill="#DBDBDB"/>
<path d="M25.6301 146.297C24.6501 145.952 23.6991 145.539 22.7411 145.158C22.5095 145.055 22.2692 144.973 22.0231 144.913L21.2661 144.742L19.7491 144.406C17.7284 143.954 15.7101 143.487 13.6941 143.006C15.7308 143.388 17.7641 143.79 19.7941 144.212L21.3141 144.535L22.0741 144.701C22.3327 144.758 22.585 144.841 22.8271 144.948C23.7847 145.348 24.7204 145.798 25.6301 146.297Z" fill="#DBDBDB"/>
<path d="M26.854 145.767C25.874 145.423 24.924 145.009 23.965 144.628C23.7338 144.525 23.4938 144.443 23.248 144.383L22.491 144.212L20.975 143.876C18.9544 143.424 16.936 142.957 14.92 142.476C16.9567 142.858 18.99 143.26 21.02 143.682L22.539 144.005L23.299 144.171C23.5577 144.228 23.81 144.311 24.052 144.418C25.0094 144.817 25.9447 145.268 26.854 145.767Z" fill="#DBDBDB"/>
<path d="M28.045 145.243C27.065 144.899 26.114 144.486 25.156 144.104C24.9245 144.001 24.6842 143.919 24.438 143.858L23.681 143.687L22.165 143.352C20.1437 142.899 18.125 142.433 16.109 141.952C18.1457 142.334 20.179 142.736 22.209 143.158L23.729 143.482L24.489 143.647C24.7477 143.704 25 143.787 25.242 143.894C26.1997 144.294 27.1353 144.744 28.045 145.243Z" fill="#DBDBDB"/>
<path d="M28.994 144.583C28.016 144.239 27.067 143.826 26.109 143.446C25.8787 143.343 25.6393 143.262 25.394 143.203L24.637 143.044L23.118 142.735C21.0926 142.32 19.0693 141.892 17.048 141.451C19.0873 141.794 21.123 142.158 23.155 142.543L24.678 142.843L25.44 142.996C25.699 143.051 25.9514 143.134 26.193 143.242C27.1498 143.639 28.0848 144.087 28.994 144.583Z" fill="#DBDBDB"/>
<path d="M29.944 143.923C28.967 143.579 28.019 143.168 27.064 142.788C26.8347 142.685 26.5959 142.604 26.351 142.546L25.593 142.4L24.07 142.121C22.04 141.747 20.0113 141.362 17.984 140.966C20.028 141.265 22.068 141.586 24.104 141.929L25.63 142.195L26.393 142.335C26.6526 142.389 26.9055 142.471 27.147 142.58C28.1024 142.978 29.0361 143.426 29.944 143.923Z" fill="#DBDBDB"/>
<path d="M30.892 143.264C29.917 142.921 28.971 142.511 28.017 142.131C27.7895 142.027 27.5519 141.947 27.308 141.892L26.548 141.768L25.02 141.539C22.983 141.233 20.946 140.923 18.911 140.594C20.9597 140.821 23.0053 141.071 25.048 141.346L26.579 141.562L27.346 141.681C27.6063 141.732 27.8598 141.814 28.101 141.924C29.0544 142.321 29.986 142.768 30.892 143.264Z" fill="#DBDBDB"/>
<path d="M34.386 156.453C33.298 156.092 32.212 155.726 31.131 155.344L27.894 154.19C27.355 154.003 26.815 153.79 26.282 153.613L24.643 153.094C23.552 152.739 22.465 152.375 21.384 151.994C22.493 152.287 23.596 152.594 24.695 152.916L26.341 153.409C26.895 153.593 27.43 153.781 27.969 153.981C29.043 154.381 30.121 154.77 31.189 155.186C32.257 155.602 33.325 156.021 34.386 156.453Z" fill="#DBDBDB"/>
<path d="M19.075 151.174C17.975 150.835 16.875 150.491 15.786 150.132L12.513 149.045L10.884 148.501L9.22903 148.016C8.12903 147.684 7.02904 147.342 5.93604 146.982C7.05504 147.252 8.16803 147.54 9.27703 147.837L10.939 148.297C11.499 148.469 12.039 148.646 12.584 148.835C13.67 149.213 14.759 149.58 15.839 149.974C16.919 150.368 18.001 150.763 19.075 151.174Z" fill="#DBDBDB"/>
<path d="M187.842 88.653C186.908 87.981 157.1 78.732 155.742 79.098C155.594 79.14 155.28 80.48 153.934 83.807C153.869 83.965 139.686 101.159 139.686 101.159L159.097 111.404L170.175 95.785C170.175 95.785 184.032 93.157 185.483 92.598C186.934 92.039 188.776 89.324 187.842 88.653Z" fill="#FFC3BD"/>
<path d="M187.842 88.653C186.908 87.981 157.1 78.732 155.742 79.098C155.594 79.14 155.28 80.48 153.934 83.807C153.869 83.965 151.928 86.217 150.976 87.444C152.211 88.505 164.121 96.913 167.393 99.707L170.176 95.784C170.176 95.784 184.033 93.156 185.484 92.597C186.935 92.038 188.776 89.324 187.842 88.653Z" fill="#FFC727"/>
<path d="M161.42 81.995C161.268 82.3334 161.076 82.6521 160.847 82.944C160.395 83.5334 159.81 84.0074 159.14 84.327C158.459 84.6442 157.709 84.7819 156.96 84.727C156.219 84.6535 155.501 84.4246 154.854 84.055C154.818 84.036 154.854 83.98 154.888 84C155.532 84.312 156.241 84.4679 156.957 84.4551C157.673 84.4422 158.375 84.261 159.008 83.926C159.61 83.6111 160.133 83.1631 160.536 82.616C160.732 82.3486 160.899 82.0618 161.036 81.76C161.104 81.6096 161.162 81.4553 161.212 81.298C161.263 81.138 161.276 81.004 161.43 80.914C161.467 80.8948 161.51 80.8905 161.549 80.902C161.589 80.9136 161.623 80.9401 161.644 80.976C161.809 81.231 161.53 81.747 161.42 81.995Z" fill="white"/>
<path d="M181.567 93.494C180.912 93.2481 180.349 92.8051 179.956 92.226C179.519 91.6399 179.156 91.0017 178.877 90.326C178.596 89.6632 178.4 88.9677 178.292 88.256C178.24 87.9094 178.209 87.5602 178.197 87.21C178.164 86.8536 178.185 86.4942 178.259 86.144C178.263 86.1309 178.271 86.1194 178.282 86.1112C178.292 86.103 178.306 86.0986 178.319 86.0986C178.333 86.0986 178.346 86.103 178.357 86.1112C178.368 86.1194 178.376 86.1309 178.38 86.144C178.425 86.4559 178.454 86.77 178.466 87.085C178.503 87.4339 178.558 87.7807 178.631 88.124C178.771 88.7926 178.972 89.447 179.231 90.079C179.704 91.3571 180.56 92.458 181.682 93.231C181.71 93.2502 181.731 93.2786 181.74 93.3113C181.75 93.344 181.747 93.3791 181.734 93.4103C181.72 93.4415 181.696 93.467 181.665 93.4823C181.635 93.4976 181.6 93.5017 181.567 93.494Z" fill="white"/>
<path d="M167.404 96.096C163.78 93.48 160.173 90.839 156.523 88.26C155.489 87.529 154.461 86.786 153.415 86.072C153.38 86.048 153.42 86 153.455 86.022C157.291 88.328 161.001 90.8396 164.566 93.546C165.571 94.322 166.548 95.135 167.52 95.952C167.539 95.9674 167.551 95.9897 167.554 96.0141C167.556 96.0385 167.549 96.0629 167.534 96.082C167.518 96.1011 167.496 96.1133 167.472 96.1159C167.447 96.1186 167.423 96.1114 167.404 96.096Z" fill="white"/>
<path d="M153.753 86.657C153.74 86.6845 153.722 86.709 153.699 86.729C153.673 86.749 153.644 86.767 153.617 86.786L153.461 86.886C153.35 86.96 153.238 87.03 153.122 87.096C152.897 87.224 152.667 87.341 152.434 87.454C152.401 87.47 152.371 87.418 152.403 87.399C152.621 87.264 152.835 87.122 153.046 86.976C153.146 86.905 153.252 86.835 153.356 86.765L153.52 86.652C153.568 86.6105 153.625 86.581 153.687 86.566C153.698 86.5642 153.71 86.5655 153.721 86.57C153.732 86.5744 153.741 86.5818 153.748 86.5912C153.755 86.6007 153.759 86.6118 153.76 86.6234C153.761 86.635 153.758 86.6467 153.753 86.657Z" fill="white"/>
<path d="M155.445 87.904C155.432 87.9314 155.414 87.956 155.391 87.976C155.365 87.996 155.337 88.014 155.309 88.033L155.153 88.133C155.042 88.207 154.93 88.277 154.814 88.343C154.589 88.471 154.359 88.588 154.126 88.701C154.094 88.717 154.063 88.665 154.095 88.646C154.313 88.511 154.527 88.368 154.738 88.223C154.838 88.152 154.945 88.082 155.048 88.012L155.211 87.899C155.259 87.8575 155.316 87.828 155.378 87.813C155.389 87.8109 155.401 87.8122 155.412 87.8165C155.423 87.8209 155.433 87.8282 155.44 87.8377C155.447 87.8472 155.451 87.8584 155.452 87.8701C155.453 87.8818 155.45 87.8936 155.445 87.904Z" fill="white"/>
<path d="M157.135 89.151C157.122 89.1784 157.104 89.2029 157.081 89.223C157.055 89.243 157.027 89.261 156.999 89.28L156.843 89.38C156.732 89.454 156.62 89.524 156.504 89.59C156.279 89.718 156.049 89.835 155.816 89.948C155.783 89.964 155.753 89.912 155.785 89.893C156.003 89.758 156.217 89.615 156.427 89.469L156.737 89.258L156.901 89.145C156.949 89.1035 157.006 89.074 157.068 89.059C157.08 89.0568 157.092 89.058 157.103 89.0623C157.114 89.0667 157.124 89.0742 157.131 89.0838C157.138 89.0935 157.142 89.1049 157.143 89.1168C157.143 89.1287 157.141 89.1405 157.135 89.151Z" fill="white"/>
<path d="M158.825 90.397C158.812 90.4245 158.794 90.449 158.771 90.469C158.745 90.489 158.717 90.507 158.689 90.526L158.533 90.626C158.422 90.7 158.311 90.77 158.195 90.836C157.969 90.964 157.739 91.081 157.507 91.194C157.474 91.21 157.444 91.158 157.476 91.138C157.694 91.004 157.908 90.861 158.119 90.715C158.219 90.644 158.326 90.575 158.429 90.504L158.592 90.391C158.64 90.3497 158.697 90.3203 158.759 90.305C158.771 90.303 158.783 90.3044 158.793 90.3089C158.804 90.3134 158.814 90.3208 158.821 90.3304C158.828 90.34 158.832 90.3513 158.832 90.3631C158.833 90.3749 158.831 90.3866 158.825 90.397Z" fill="white"/>
<path d="M160.517 91.644C160.504 91.6714 160.486 91.6959 160.463 91.716C160.437 91.736 160.409 91.754 160.381 91.773L160.225 91.873C160.114 91.947 160.002 92.017 159.886 92.083C159.661 92.211 159.431 92.328 159.197 92.441C159.165 92.457 159.135 92.405 159.166 92.385C159.385 92.251 159.598 92.108 159.809 91.962C159.909 91.891 160.016 91.822 160.119 91.751L160.282 91.638C160.33 91.5969 160.387 91.5674 160.449 91.552C160.461 91.5496 160.473 91.5506 160.484 91.5549C160.495 91.5592 160.505 91.5666 160.512 91.5763C160.52 91.5859 160.524 91.5974 160.525 91.6095C160.525 91.6215 160.523 91.6335 160.517 91.644Z" fill="white"/>
<path d="M162.207 92.891C162.194 92.9184 162.176 92.9428 162.153 92.963C162.127 92.983 162.098 93.001 162.071 93.02L161.915 93.12C161.804 93.193 161.692 93.264 161.576 93.33C161.351 93.458 161.121 93.575 160.888 93.688C160.855 93.703 160.825 93.652 160.857 93.632C161.075 93.498 161.289 93.355 161.499 93.209C161.599 93.138 161.706 93.069 161.809 92.998L161.973 92.885C162.021 92.8438 162.078 92.8143 162.14 92.799C162.152 92.7968 162.164 92.798 162.175 92.8023C162.186 92.8067 162.195 92.8142 162.202 92.8238C162.21 92.8335 162.214 92.8449 162.214 92.8568C162.215 92.8687 162.213 92.8805 162.207 92.891Z" fill="white"/>
<path d="M163.898 94.136C163.885 94.1634 163.867 94.1878 163.844 94.208C163.818 94.228 163.79 94.246 163.762 94.264L163.606 94.364C163.495 94.438 163.383 94.508 163.267 94.574C163.042 94.702 162.812 94.819 162.578 94.932C162.546 94.947 162.515 94.896 162.547 94.876C162.765 94.742 162.979 94.599 163.19 94.453C163.29 94.382 163.397 94.313 163.5 94.242L163.663 94.129C163.711 94.0877 163.769 94.0583 163.831 94.043C163.843 94.0407 163.855 94.0418 163.866 94.0462C163.878 94.0506 163.887 94.0582 163.894 94.068C163.901 94.0778 163.905 94.0894 163.906 94.1015C163.907 94.1135 163.904 94.1255 163.898 94.136Z" fill="white"/>
<path d="M165.589 95.383C165.576 95.4109 165.558 95.4358 165.535 95.456C165.509 95.476 165.481 95.494 165.453 95.512L165.297 95.617C165.186 95.69 165.074 95.761 164.958 95.826C164.733 95.954 164.503 96.071 164.27 96.184C164.237 96.199 164.207 96.148 164.239 96.128C164.457 95.994 164.671 95.851 164.881 95.705C164.981 95.634 165.088 95.565 165.191 95.494L165.354 95.381C165.402 95.3395 165.459 95.31 165.521 95.295C165.532 95.2931 165.544 95.2943 165.554 95.2984C165.565 95.3026 165.574 95.3096 165.581 95.3186C165.588 95.3277 165.593 95.3384 165.594 95.3498C165.595 95.3611 165.594 95.3726 165.589 95.383Z" fill="white"/>
<path d="M167.279 96.635C167.266 96.6623 167.248 96.6868 167.226 96.707C167.2 96.727 167.171 96.745 167.144 96.763L166.988 96.863C166.877 96.937 166.765 97.007 166.649 97.073C166.424 97.201 166.194 97.318 165.961 97.431C165.928 97.447 165.898 97.395 165.93 97.376C166.148 97.242 166.362 97.099 166.573 96.953C166.673 96.882 166.78 96.813 166.883 96.742L167.047 96.629C167.095 96.5875 167.152 96.558 167.214 96.543C167.225 96.5413 167.237 96.5428 167.248 96.5473C167.259 96.5519 167.268 96.5594 167.275 96.569C167.282 96.5785 167.286 96.5898 167.286 96.6014C167.287 96.6131 167.284 96.6247 167.279 96.635Z" fill="white"/>
<path d="M164.813 103.783L147.691 90.309C147.691 90.309 130.112 112.775 129.813 112.927C121.987 113.094 114.186 113.885 106.486 115.292C104.496 115.692 93.8919 110.512 82.0339 120.492L83.8179 139.068C102.467 141.736 128.483 137.721 139.57 134.092C150.039 130.663 164.813 103.783 164.813 103.783Z" fill="#A0BDFF"/>
<path d="M162.416 105.541C158.565 102.358 154.678 99.224 150.631 96.292C149.479 95.457 148.292 94.671 147.159 93.811C147.121 93.782 147.081 93.844 147.118 93.873C148.106 94.643 149.041 95.473 150.011 96.267C150.981 97.061 151.95 97.845 152.93 98.621C154.885 100.168 156.904 101.63 158.913 103.106C160.059 103.949 161.213 104.777 162.374 105.606C162.415 105.632 162.452 105.571 162.416 105.541Z" fill="#455A64"/>
<path d="M149.273 97.801C146.191 101.901 143.094 105.987 140.028 110.101C138.495 112.157 136.958 114.21 135.417 116.261C134.848 117.211 133.972 117.938 132.933 118.32C132.371 118.458 131.8 118.552 131.224 118.603L129.318 118.838C124.257 119.462 119.197 120.095 114.134 120.707C112.872 120.884 111.6 120.978 110.326 120.988C109.054 120.933 107.788 120.778 106.54 120.523C104.273 120.135 101.969 120.013 99.6739 120.159C95.1239 120.509 90.6811 121.717 86.5799 123.718C86.0589 123.965 85.5419 124.218 85.0289 124.483C84.9859 124.505 85.0289 124.567 85.0679 124.547C89.2964 122.478 93.8577 121.172 98.5409 120.692C100.846 120.465 103.17 120.511 105.464 120.829C106.691 121.007 107.903 121.28 109.138 121.397C110.404 121.494 111.677 121.464 112.938 121.308C115.481 121.039 118.018 120.689 120.557 120.376L128.181 119.436C129.445 119.28 130.716 119.149 131.976 118.963C133.006 118.878 133.977 118.448 134.732 117.743C135.497 116.879 136.199 115.961 136.832 114.996C137.606 113.938 138.384 112.883 139.165 111.831C142.207 107.711 145.224 103.573 148.251 99.442L149.388 97.891C149.433 97.82 149.322 97.737 149.273 97.801Z" fill="#455A64"/>
<path d="M139.429 56.212C138.473 56.851 119.366 81.529 119.229 82.927C119.216 83.081 120.362 83.844 123.006 86.271C123.247 87.0902 123.374 87.939 123.383 88.793C123.836 94.215 124.209 106.468 124.209 106.468L144.224 101.545L140.803 80.683L139.915 75.257C139.915 75.257 142.31 61.357 142.295 59.803C142.28 58.249 140.384 55.573 139.429 56.212Z" fill="#FFC3BD"/>
<path d="M139.429 56.212C138.473 56.851 119.366 81.529 119.229 82.927C119.216 83.081 120.362 83.844 123.006 86.271C123.247 87.0902 123.374 87.939 123.383 88.793C126.658 87.213 136.718 82.565 140.803 80.681L139.915 75.255C139.915 75.255 142.31 61.355 142.295 59.801C142.28 58.247 140.384 55.573 139.429 56.212Z" fill="#FFC727"/>
<path d="M123.936 78.627C124.2 78.8879 124.432 79.1801 124.625 79.497C125.02 80.1266 125.26 80.8408 125.325 81.581C125.382 82.3296 125.247 83.0804 124.932 83.762C124.603 84.4307 124.138 85.0225 123.565 85.499C123.534 85.526 123.494 85.475 123.526 85.448C124.044 84.9538 124.438 84.3446 124.677 83.6697C124.916 82.9947 124.992 82.273 124.9 81.563C124.816 80.8886 124.579 80.2422 124.208 79.673C124.026 79.3965 123.816 79.1395 123.581 78.906C123.464 78.7897 123.339 78.6806 123.209 78.579C123.077 78.479 122.956 78.417 122.926 78.24C122.921 78.1988 122.932 78.1571 122.956 78.1238C122.981 78.0904 123.018 78.0679 123.059 78.061C123.356 77.995 123.743 78.437 123.936 78.627Z" fill="white"/>
<path d="M141.764 63.786C141.304 64.3136 140.692 64.6857 140.012 64.851C139.309 65.0549 138.583 65.1704 137.851 65.195C137.132 65.2257 136.411 65.1663 135.707 65.018C135.364 64.9445 135.026 64.8517 134.694 64.74C134.348 64.6457 134.019 64.5001 133.717 64.308C133.706 64.2997 133.698 64.2881 133.694 64.2749C133.691 64.2617 133.691 64.2476 133.696 64.2349C133.701 64.2221 133.71 64.2112 133.722 64.2041C133.734 64.1969 133.747 64.1937 133.761 64.195C134.069 64.2618 134.374 64.345 134.673 64.444C135.013 64.5311 135.357 64.6008 135.704 64.653C136.379 64.7565 137.062 64.7977 137.745 64.776C139.108 64.7822 140.44 64.3661 141.557 63.585C141.687 63.49 141.867 63.654 141.764 63.786Z" fill="white"/>
<path d="M139.48 78.611C135.456 80.556 131.418 82.473 127.413 84.459C126.278 85.021 125.136 85.572 124.013 86.153C123.976 86.173 123.953 86.114 123.988 86.094C127.84 83.8144 131.813 81.7447 135.888 79.894C137.048 79.378 138.228 78.905 139.409 78.439C139.42 78.4343 139.432 78.432 139.445 78.432C139.457 78.432 139.469 78.4344 139.48 78.4391C139.491 78.4438 139.502 78.4507 139.51 78.4593C139.519 78.468 139.526 78.4782 139.531 78.4895C139.535 78.5008 139.538 78.5129 139.538 78.5251C139.538 78.5373 139.535 78.5494 139.53 78.5607C139.526 78.572 139.519 78.5823 139.51 78.5909C139.502 78.5995 139.491 78.6063 139.48 78.611Z" fill="white"/>
<path d="M124.682 86.13C124.7 86.1544 124.713 86.1823 124.72 86.212C124.725 86.244 124.727 86.278 124.731 86.312C124.737 86.375 124.744 86.437 124.749 86.499C124.761 86.632 124.77 86.764 124.773 86.899C124.773 87.158 124.773 87.416 124.76 87.675C124.76 87.711 124.698 87.713 124.696 87.675C124.681 87.419 124.657 87.163 124.629 86.908C124.615 86.784 124.604 86.659 124.591 86.535C124.584 86.4683 124.577 86.4017 124.569 86.335C124.554 86.2732 124.554 86.2088 124.569 86.147C124.572 86.1355 124.579 86.1252 124.588 86.1173C124.597 86.1094 124.608 86.1042 124.62 86.1024C124.632 86.1007 124.644 86.1023 124.655 86.1072C124.666 86.1121 124.675 86.12 124.682 86.13Z" fill="white"/>
<path d="M126.582 85.236C126.6 85.2601 126.613 85.2877 126.62 85.317C126.625 85.35 126.627 85.383 126.631 85.417C126.637 85.479 126.643 85.541 126.649 85.604C126.661 85.737 126.67 85.868 126.673 86.004C126.678 86.263 126.673 86.521 126.66 86.779C126.66 86.815 126.598 86.817 126.596 86.779C126.581 86.523 126.557 86.267 126.529 86.012C126.515 85.888 126.504 85.763 126.491 85.639C126.485 85.573 126.477 85.507 126.47 85.439C126.455 85.3772 126.455 85.3128 126.47 85.251C126.474 85.2399 126.481 85.23 126.49 85.2225C126.499 85.2151 126.51 85.2103 126.521 85.2087C126.533 85.2071 126.545 85.2089 126.556 85.2137C126.566 85.2185 126.575 85.2263 126.582 85.236Z" fill="white"/>
<path d="M128.483 84.341C128.501 84.3654 128.514 84.3934 128.521 84.423C128.527 84.455 128.529 84.489 128.532 84.523C128.538 84.586 128.544 84.648 128.55 84.71C128.562 84.843 128.57 84.975 128.573 85.11C128.578 85.369 128.573 85.627 128.561 85.886C128.561 85.922 128.499 85.924 128.497 85.886C128.482 85.63 128.458 85.375 128.43 85.119C128.416 84.995 128.405 84.87 128.392 84.746C128.385 84.68 128.378 84.614 128.371 84.546C128.356 84.4842 128.356 84.4198 128.371 84.358C128.374 84.3467 128.381 84.3367 128.39 84.329C128.399 84.3213 128.41 84.3163 128.422 84.3145C128.433 84.3127 128.445 84.3143 128.456 84.319C128.467 84.3236 128.476 84.3313 128.483 84.341Z" fill="white"/>
<path d="M130.383 83.446C130.401 83.4701 130.414 83.4977 130.421 83.527C130.427 83.56 130.429 83.593 130.432 83.627C130.439 83.689 130.445 83.751 130.45 83.814C130.462 83.947 130.471 84.079 130.474 84.214C130.479 84.473 130.474 84.731 130.462 84.99C130.462 85.026 130.4 85.028 130.398 84.99C130.383 84.734 130.359 84.479 130.331 84.223C130.317 84.099 130.306 83.974 130.293 83.85C130.286 83.784 130.279 83.718 130.272 83.65C130.257 83.5882 130.257 83.5238 130.272 83.462C130.276 83.4511 130.282 83.4413 130.291 83.4339C130.3 83.4265 130.311 83.4218 130.323 83.4201C130.334 83.4184 130.346 83.42 130.356 83.4246C130.367 83.4291 130.376 83.4365 130.383 83.446Z" fill="white"/>
<path d="M132.284 82.551C132.302 82.5755 132.315 82.6034 132.322 82.633C132.327 82.665 132.329 82.699 132.333 82.733C132.339 82.795 132.346 82.857 132.351 82.92C132.363 83.052 132.372 83.184 132.375 83.32C132.38 83.579 132.375 83.837 132.362 84.096C132.362 84.132 132.3 84.134 132.298 84.096C132.283 83.84 132.259 83.584 132.231 83.329C132.217 83.205 132.206 83.081 132.193 82.956C132.186 82.8894 132.179 82.8227 132.171 82.756C132.156 82.6942 132.156 82.6298 132.171 82.568C132.174 82.5565 132.181 82.5462 132.19 82.5383C132.199 82.5304 132.21 82.5252 132.222 82.5235C132.234 82.5217 132.246 82.5233 132.257 82.5282C132.268 82.5331 132.277 82.541 132.284 82.551Z" fill="white"/>
<path d="M134.185 81.656C134.203 81.6801 134.216 81.7077 134.223 81.737C134.228 81.77 134.23 81.803 134.234 81.837C134.24 81.899 134.247 81.962 134.252 82.024C134.264 82.157 134.273 82.289 134.276 82.424C134.281 82.683 134.276 82.941 134.263 83.2C134.263 83.236 134.201 83.238 134.199 83.2C134.184 82.944 134.16 82.688 134.132 82.433C134.118 82.309 134.107 82.184 134.094 82.06C134.088 81.994 134.08 81.928 134.073 81.86C134.058 81.7982 134.058 81.7338 134.073 81.672C134.077 81.6608 134.083 81.6508 134.092 81.6432C134.101 81.6357 134.112 81.6308 134.124 81.6291C134.136 81.6274 134.148 81.6291 134.158 81.6338C134.169 81.6386 134.178 81.6463 134.185 81.656Z" fill="white"/>
<path d="M136.086 80.761C136.104 80.7854 136.117 80.8133 136.124 80.843C136.13 80.876 136.132 80.909 136.135 80.943C136.141 81.005 136.147 81.067 136.153 81.13C136.165 81.263 136.174 81.394 136.177 81.53C136.182 81.789 136.177 82.047 136.164 82.306C136.164 82.342 136.102 82.344 136.1 82.306C136.085 82.05 136.061 81.794 136.033 81.539C136.019 81.415 136.008 81.29 135.995 81.165C135.989 81.099 135.981 81.033 135.974 80.965C135.959 80.9032 135.959 80.8388 135.974 80.777C135.978 80.7658 135.984 80.7558 135.993 80.7483C136.002 80.7407 136.013 80.7358 136.025 80.7341C136.037 80.7324 136.049 80.7341 136.059 80.7388C136.07 80.7436 136.079 80.7513 136.086 80.761Z" fill="white"/>
<path d="M137.981 79.867C137.999 79.8914 138.012 79.9193 138.019 79.949C138.025 79.981 138.027 80.015 138.03 80.049C138.037 80.112 138.043 80.174 138.048 80.236C138.06 80.369 138.069 80.501 138.072 80.636C138.077 80.895 138.072 81.153 138.06 81.412C138.06 81.448 137.998 81.45 137.996 81.412C137.981 81.156 137.957 80.901 137.929 80.645C137.915 80.521 137.904 80.396 137.891 80.272C137.884 80.206 137.877 80.14 137.87 80.072C137.855 80.0102 137.855 79.9458 137.87 79.884C137.874 79.873 137.88 79.8632 137.889 79.8557C137.898 79.8481 137.909 79.8432 137.92 79.8415C137.932 79.8397 137.944 79.8412 137.954 79.8457C137.965 79.8502 137.974 79.8576 137.981 79.867Z" fill="white"/>
<path d="M139.886 78.972C139.904 78.9961 139.917 79.0237 139.924 79.053C139.929 79.086 139.932 79.119 139.935 79.153C139.941 79.215 139.948 79.277 139.953 79.34C139.965 79.473 139.974 79.605 139.977 79.74C139.982 79.999 139.977 80.257 139.964 80.515C139.964 80.551 139.902 80.553 139.9 80.515C139.885 80.259 139.861 80.003 139.833 79.748C139.819 79.624 139.808 79.499 139.795 79.375C139.788 79.309 139.781 79.243 139.773 79.175C139.758 79.1132 139.758 79.0488 139.773 78.987C139.777 78.9756 139.783 78.9655 139.793 78.9578C139.802 78.9501 139.813 78.9452 139.825 78.9437C139.837 78.9421 139.849 78.9439 139.859 78.9489C139.87 78.954 139.88 78.962 139.886 78.972Z" fill="white"/>
<path d="M141.826 86.529L121.633 90.818C121.633 90.818 124.055 119.098 123.967 119.418C117.81 120.195 111.602 120.495 105.398 120.318C105.398 120.318 91.513 114.283 82.034 124.697L80.686 142.968C107.097 146.168 142.457 144.686 147.145 135.692C152.238 125.924 141.826 86.529 141.826 86.529Z" fill="#A0BDFF"/>
<path d="M123.919 119.292C121.679 119.292 117.919 119.715 115.682 119.802C113.46 119.888 111.239 120.019 109.018 120.134C107.74 120.2 106.671 120.121 105.397 120.243C105.387 120.243 105.378 120.247 105.371 120.254C105.364 120.261 105.36 120.27 105.36 120.28C105.36 120.29 105.364 120.299 105.371 120.306C105.378 120.313 105.387 120.317 105.397 120.317C109.791 120.553 114.197 120.467 118.578 120.057C119.857 119.942 122.703 119.639 123.972 119.449C124.034 119.442 124.139 119.292 123.919 119.292Z" fill="#455A64"/>
<path d="M104.138 118.389C103.309 117.471 102.377 116.652 101.361 115.947C101.326 115.922 101.286 115.979 101.317 116.006C102.202 116.839 103.035 117.728 103.809 118.665C104.648 119.569 105.419 120.535 106.115 121.553C106.118 121.557 106.123 121.559 106.128 121.56C106.133 121.56 106.138 121.559 106.142 121.557C106.146 121.554 106.149 121.55 106.151 121.545C106.152 121.541 106.152 121.536 106.15 121.531C105.592 120.416 104.917 119.363 104.138 118.389Z" fill="#455A64"/>
<path d="M148.551 122.087C148.527 121.087 148.439 120.087 148.362 119.095C148.21 117.12 148.014 115.15 147.751 113.187C147.22 109.233 146.534 105.306 145.651 101.415C145.404 100.328 145.151 99.242 144.872 98.161C144.621 97.054 144.306 95.9623 143.931 94.891C143.899 94.808 143.748 94.816 143.764 94.918C143.907 95.875 144.164 96.825 144.375 97.769C144.586 98.713 144.805 99.686 145.008 100.646C145.423 102.605 145.802 104.572 146.147 106.546C146.835 110.467 147.392 114.405 147.857 118.358C147.988 119.468 148.098 120.581 148.218 121.692C148.278 122.248 148.502 126.692 148.513 127.267C148.513 127.316 148.592 127.313 148.587 127.267C148.541 126.772 148.586 123.574 148.551 122.087Z" fill="#455A64"/>
<path d="M123.918 116.222C123.862 115.189 123.714 114.162 123.475 113.155C123.472 113.15 123.468 113.147 123.463 113.144C123.458 113.142 123.452 113.141 123.447 113.142C123.441 113.143 123.436 113.145 123.432 113.149C123.428 113.153 123.425 113.158 123.424 113.163C123.359 114.226 123.395 115.293 123.532 116.349C123.629 117.38 123.779 118.405 123.98 119.42C123.984 119.426 123.99 119.431 123.996 119.434C124.003 119.436 124.01 119.437 124.018 119.436C124.025 119.435 124.031 119.432 124.037 119.427C124.042 119.422 124.046 119.416 124.048 119.409C124.061 118.345 124.018 117.281 123.918 116.222Z" fill="#455A64"/>
<path d="M142.531 125.245C142.455 121.687 142.211 118.134 141.852 114.594C141.144 107.61 139.99 100.675 138.752 93.767C138.601 92.919 138.449 92.0717 138.296 91.225C138.287 91.177 138.217 91.2 138.225 91.246C139.379 98.156 140.563 105.067 141.347 112.032C141.736 115.49 142.034 118.96 142.182 122.437C142.254 124.124 142.296 125.814 142.282 127.503C142.306 128.92 142.175 130.335 141.892 131.724C141.617 133.101 140.975 134.377 140.033 135.418C139.023 136.407 137.793 137.144 136.445 137.569C134.984 138.048 133.491 138.423 131.977 138.689C130.31 139.019 128.631 139.289 126.939 139.498C120.169 140.229 113.355 140.469 106.55 140.217C99.58 140.077 92.611 139.817 85.64 139.741C84.766 139.731 83.893 139.72 83.02 139.699C82.972 139.699 82.974 139.772 83.02 139.773C86.615 139.884 90.208 140.042 93.803 140.152C97.3643 140.261 100.926 140.367 104.488 140.468C111.37 140.778 118.265 140.629 125.128 140.023C128.45 139.706 131.743 139.137 134.979 138.323C136.343 138.004 137.649 137.474 138.849 136.752C139.992 136.028 140.908 134.995 141.489 133.773C142.74 131.156 142.591 128.066 142.531 125.245Z" fill="#455A64"/>
<path d="M141.856 89.69C136.919 90.455 131.994 91.279 127.115 92.357C125.726 92.664 124.35 93.029 122.954 93.305C122.907 93.315 122.927 93.386 122.974 93.377C124.206 93.15 125.449 93.003 126.685 92.804C127.921 92.605 129.152 92.404 130.385 92.185C132.84 91.751 135.274 91.212 137.712 90.691C139.104 90.391 140.491 90.078 141.878 89.761C141.926 89.752 141.905 89.681 141.856 89.69Z" fill="#455A64"/>
<path d="M38.634 115.469C39.3668 112.278 40.5857 109.218 42.248 106.397C43.203 104.955 46.383 101.103 47.548 101.751C48.713 102.399 47.881 103.607 47.881 103.607C47.881 103.607 49.468 102.181 50.581 102.939C51.694 103.697 50.34 105.539 50.34 105.539C50.34 105.539 52.076 104.193 53.131 105.03C54.186 105.867 52.516 107.485 52.516 107.485C52.516 107.485 54.047 106.185 54.625 107.235C55.325 108.503 52.225 110.59 51.252 112.235C51.031 112.609 47.302 120.14 47.302 120.14L38.634 115.469Z" fill="#FFC3BD"/>
<path d="M52.5081 107.522C50.5993 108.691 49.1568 110.487 48.4281 112.603C48.4071 112.651 48.3281 112.631 48.3481 112.578C49.1861 110.057 49.9061 108.588 52.4391 107.407C52.5631 107.35 52.6161 107.448 52.5081 107.522Z" fill="#263238"/>
<path d="M50.408 105.445C48.5365 106.885 47.0458 108.761 46.066 110.909C46.047 110.945 45.985 110.917 46.001 110.879C47.093 108.309 47.845 106.859 50.301 105.347C50.41 105.279 50.509 105.362 50.408 105.445Z" fill="#263238"/>
<path d="M47.7051 103.766C45.901 105.283 44.5441 107.262 43.7801 109.492C43.7761 109.505 43.767 109.516 43.7548 109.523C43.7426 109.53 43.7283 109.531 43.7151 109.527C43.7018 109.523 43.6907 109.514 43.6841 109.502C43.6775 109.49 43.6761 109.475 43.6801 109.462C44.1933 107.1 45.6149 105.034 47.6381 103.71C47.7821 103.61 47.8321 103.646 47.7051 103.766Z" fill="#263238"/>
<path d="M47.084 122.085C48.3902 121.068 49.6196 119.955 50.762 118.757C51.741 117.557 53.747 111.757 52.518 111.25C50.931 110.599 49.112 113.722 48.418 115.368C48.418 115.368 44.748 113.858 42.958 115.817C41.168 117.776 47.084 122.085 47.084 122.085Z" fill="#FFC3BD"/>
<path d="M52.0209 111.214C50.1449 111.664 49.3779 113.883 48.5889 115.43C48.5783 115.453 48.5622 115.474 48.542 115.49C48.5218 115.505 48.498 115.516 48.4727 115.521C48.4475 115.525 48.4215 115.524 48.397 115.516C48.3724 115.509 48.3501 115.495 48.3319 115.477C46.7519 114.947 44.3679 114.659 42.9549 115.708C42.947 115.715 42.9365 115.719 42.9258 115.718C42.9151 115.718 42.9051 115.713 42.8979 115.705C42.8908 115.697 42.8871 115.687 42.8876 115.676C42.8882 115.665 42.893 115.655 42.9009 115.648C44.2629 114.317 46.6279 114.409 48.3229 115.1C49.1079 113.5 49.9749 111.309 52.0169 111.2C52.0183 111.2 52.0195 111.201 52.0204 111.202C52.0214 111.203 52.0221 111.205 52.0225 111.206C52.0229 111.207 52.0229 111.209 52.0227 111.21C52.0224 111.212 52.0218 111.213 52.0209 111.214Z" fill="#263238"/>
<path d="M60.005 122.312C55.6593 128.844 49.7836 134.215 42.889 137.958C38.467 140.382 33.831 137.558 33.068 135.767C31.436 131.939 37.126 117.081 39.18 114.086C39.789 113.197 40.705 114.979 43.564 117.472C44.918 118.653 50.11 118.349 49.743 119.813C49.481 120.856 47.783 123.819 48.021 123.8C48.608 123.751 52.904 120.628 57.452 117.7C63.711 113.672 61.466 120.168 60.005 122.312Z" fill="#FFC3BD"/>
<path d="M48.0289 123.68C47.7569 124.043 43.8289 132.062 42.8949 133.714C42.8709 133.756 42.9349 133.791 42.9599 133.75C43.9599 132.137 44.9949 130.543 45.8769 128.862C46.3129 128.032 46.7619 127.2 47.1199 126.334C47.2909 125.92 47.4489 125.502 47.6109 125.084C47.8162 124.646 47.9793 124.188 48.0979 123.719C48.1049 123.681 48.0549 123.644 48.0289 123.68Z" fill="#263238"/>
<path d="M48.397 123.04L58.402 126.869C59.9996 124.578 61.4766 122.204 62.827 119.759C64.619 116.203 63.718 114.704 59.195 116.54C56.168 117.767 48.397 123.04 48.397 123.04Z" fill="#346AE1"/>
<path d="M49.775 122.479C51.27 122.936 52.754 123.413 54.22 123.956C54.9533 124.227 55.68 124.509 56.4 124.802C57.122 125.095 57.815 125.463 58.539 125.745C58.579 125.761 58.551 125.824 58.512 125.806C57.804 125.486 57.045 125.26 56.321 124.98C55.597 124.7 54.865 124.421 54.135 124.148C52.677 123.602 51.219 123.048 49.749 122.54C49.707 122.529 49.735 122.467 49.775 122.479Z" fill="#263238"/>
<path d="M68.0959 123.287H66.2049C66.0908 122.173 65.8034 121.084 65.3529 120.059C65.5776 121.119 65.662 122.205 65.6039 123.287H63.9429C63.7838 121.444 63.2564 119.652 62.3919 118.017C62.8664 119.733 63.0967 121.507 63.0759 123.287H48.4419C47.7929 120.2 48.2959 116.84 48.0419 117.573C47.4687 119.425 47.1597 121.349 47.1239 123.287H45.4949C45.4493 122.508 45.4936 121.725 45.6269 120.956C45.8409 119.931 44.9999 121.956 44.8929 123.287H43.8559C43.7607 120.703 44.2388 118.13 45.2559 115.753C47.3929 111.581 46.1419 110.037 47.0189 105.469C48.0189 100.269 54.8469 93.987 61.6719 100.557C62.8392 101.571 63.7778 102.822 64.4255 104.226C65.0732 105.63 65.4152 107.156 65.4289 108.702C65.4609 112.418 64.6159 114.381 65.8909 116.29C67.3159 118.346 68.0847 120.785 68.0959 123.287Z" fill="#263238"/>
<path d="M43.1879 122.666C43.0134 121.083 43.1621 119.482 43.6249 117.958C43.8457 117.192 44.1283 116.445 44.4699 115.725C44.6339 115.365 44.8369 115.01 45.0119 114.667C45.1899 114.328 45.3433 113.977 45.4709 113.616C45.929 112.127 46.2237 110.593 46.3499 109.041C46.4499 108.259 46.5499 107.475 46.7129 106.699C46.8673 105.922 47.1082 105.165 47.4309 104.441C47.0088 105.953 46.7648 107.509 46.7039 109.078C46.6449 109.863 46.5689 110.65 46.4579 111.437C46.3449 112.23 46.1581 113.011 45.8999 113.77C45.7616 114.15 45.5962 114.52 45.4049 114.877C45.2169 115.232 45.0309 115.562 44.8569 115.913C44.509 116.608 44.2102 117.327 43.9629 118.064C43.7133 118.802 43.521 119.559 43.3879 120.327C43.3149 120.711 43.2679 121.099 43.2309 121.49C43.1939 121.881 43.1829 122.272 43.1879 122.666Z" fill="#263238"/>
<path d="M65.4329 108.703C65.4649 109.335 65.4199 109.966 65.4329 110.593C65.4459 111.22 65.4469 111.845 65.5019 112.463C65.5546 113.079 65.6587 113.689 65.8129 114.287C65.8469 114.437 65.8999 114.581 65.9409 114.728L65.9739 114.838L66.0099 114.929C66.0379 114.992 66.0709 115.057 66.1099 115.123C66.2569 115.387 66.4259 115.653 66.5909 115.923C66.9159 116.464 67.2349 117.017 67.5119 117.593C67.7911 118.169 68.0252 118.765 68.2119 119.377C68.3965 119.988 68.5234 120.616 68.5909 121.251C68.6526 121.883 68.6499 122.52 68.5829 123.151C68.5382 121.901 68.299 120.665 67.8739 119.489C67.4366 118.324 66.8779 117.209 66.2069 116.161C66.0459 115.891 65.8799 115.625 65.7239 115.336C65.6849 115.262 65.6479 115.187 65.6129 115.106C65.5959 115.065 65.5789 115.018 65.5639 114.977L65.5299 114.86C65.4879 114.704 65.4299 114.551 65.4039 114.393C65.2592 113.768 65.1762 113.13 65.1559 112.488C65.1352 111.854 65.1562 111.219 65.2189 110.588C65.2729 109.952 65.3629 109.329 65.4329 108.703Z" fill="#263238"/>
<path d="M80.394 143.647C83.5601 140.469 85.6054 136.346 86.2206 131.903C86.8358 127.459 85.9875 122.936 83.804 119.017C83.804 119.017 79.049 119.773 77.804 119.529C74.019 118.792 71.182 116.696 66.824 115.072C62.466 113.448 59.455 114.723 57.724 117.683C57.292 118.422 55.167 129.214 56.724 133.042C57.945 136.053 62.891 136.926 62.891 136.926C62.891 136.926 72.071 144.566 80.394 143.647Z" fill="#346AE1"/>
<path d="M63.328 117.186C63.296 117.678 61.545 121.129 59.363 121.386C58.652 121.469 58.027 117.609 58.027 117.609L57.915 117.334L56.361 113.492L60.549 109.706L61.16 109.195C61.16 109.195 61.516 110.274 61.946 111.623C61.966 111.685 61.986 111.748 62.007 111.815C62.028 111.882 62.059 111.962 62.08 112.033C62.147 112.233 62.214 112.439 62.28 112.644C62.329 112.801 62.38 112.953 62.422 113.118C62.464 113.283 62.515 113.445 62.565 113.61C62.9008 114.783 63.1557 115.978 63.328 117.186Z" fill="#FFC3BD"/>
<path d="M61.946 111.625C61.729 112.813 61.256 113.939 60.5598 114.925C59.8637 115.911 58.9612 116.734 57.915 117.336L56.361 113.494L60.549 109.708L61.16 109.197C61.16 109.197 61.516 110.276 61.946 111.625Z" fill="#263238"/>
<path d="M49.466 109.224C51.092 116.314 55.523 116.141 57.051 115.789C58.438 115.469 63.123 114.204 62.238 106.983C61.353 99.762 57.538 98.278 54.331 98.841C51.124 99.404 47.84 102.133 49.466 109.224Z" fill="#FFC3BD"/>
<path d="M50.5269 107.844C50.6778 107.771 50.8247 107.69 50.9669 107.602C51.1331 107.538 51.2736 107.421 51.3669 107.269C51.3866 107.216 51.3881 107.157 51.3713 107.103C51.3545 107.049 51.3203 107.002 51.2739 106.969C51.172 106.917 51.0581 106.894 50.944 106.901C50.8299 106.908 50.7197 106.945 50.6249 107.009C50.4129 107.109 50.2457 107.284 50.1559 107.501C50.1385 107.552 50.1361 107.606 50.1492 107.658C50.1623 107.71 50.1902 107.757 50.2295 107.794C50.2688 107.83 50.3179 107.854 50.3707 107.863C50.4235 107.872 50.4778 107.865 50.5269 107.844Z" fill="#263238"/>
<path d="M55.3909 106.527C55.2251 106.55 55.0582 106.565 54.8909 106.571C54.7168 106.611 54.5344 106.592 54.3719 106.518C54.3259 106.485 54.2919 106.438 54.2753 106.384C54.2587 106.329 54.2603 106.271 54.2799 106.218C54.3357 106.118 54.4171 106.035 54.5158 105.978C54.6144 105.92 54.7266 105.89 54.8409 105.89C55.0728 105.855 55.3095 105.907 55.5049 106.037C55.5471 106.069 55.5791 106.113 55.597 106.163C55.615 106.213 55.6181 106.267 55.6061 106.319C55.5941 106.371 55.5674 106.418 55.5292 106.455C55.491 106.492 55.443 106.517 55.3909 106.527Z" fill="#263238"/>
<path d="M54.9949 108.564C54.9949 108.545 55.0389 108.576 55.0439 108.596C55.1619 109.077 55.3779 109.609 55.8539 109.647C55.8689 109.647 55.8739 109.672 55.8539 109.675C55.3049 109.747 55.0289 109.039 54.9949 108.564Z" fill="#263238"/>
<path d="M55.2819 107.949C56.0329 107.676 56.5219 109.199 55.8269 109.449C55.1319 109.699 54.6519 108.176 55.2819 107.949Z" fill="#263238"/>
<path d="M55.6069 107.928C55.7679 107.972 55.9459 108.081 56.1119 108.046C56.3029 108.005 56.3919 107.8 56.4639 107.608C56.4719 107.588 56.4889 107.597 56.4959 107.617C56.5646 107.749 56.5805 107.902 56.5404 108.045C56.5002 108.188 56.4071 108.31 56.2799 108.387C56.0079 108.518 55.7199 108.326 55.5519 108.056C55.5199 108.011 55.5419 107.915 55.6069 107.928Z" fill="#263238"/>
<path d="M51.9728 109.299C51.9628 109.282 51.9438 109.333 51.9498 109.353C52.1198 109.819 52.2368 110.38 51.8628 110.677C51.8508 110.686 51.8628 110.709 51.8748 110.702C52.3708 110.457 52.2088 109.713 51.9728 109.299Z" fill="#263238"/>
<path d="M51.3898 108.947C50.6138 109.139 51.0558 110.676 51.7738 110.498C52.4918 110.32 52.0358 108.786 51.3898 108.947Z" fill="#263238"/>
<path d="M51.0989 109.14C50.9989 109.256 50.9229 109.44 50.7809 109.49C50.6159 109.549 50.4439 109.419 50.2909 109.29C50.2749 109.277 50.2669 109.29 50.2719 109.314C50.3479 109.614 50.5329 109.888 50.8319 109.864C51.1039 109.841 51.2199 109.535 51.2059 109.222C51.2029 109.164 51.1379 109.093 51.0989 109.14Z" fill="#263238"/>
<path d="M55.9259 112.257C55.8559 112.407 55.7999 112.598 55.6369 112.675C55.4627 112.736 55.2777 112.759 55.0939 112.744C55.0901 112.744 55.0864 112.745 55.0832 112.747C55.0801 112.749 55.0777 112.752 55.0764 112.755C55.0752 112.759 55.0751 112.763 55.0763 112.766C55.0775 112.77 55.0798 112.773 55.0829 112.775C55.1831 112.842 55.2996 112.88 55.4198 112.886C55.5401 112.892 55.6597 112.865 55.7659 112.808C55.8513 112.748 55.917 112.664 55.9547 112.567C55.9925 112.47 56.0005 112.364 55.9779 112.262C55.9759 112.232 55.9369 112.235 55.9259 112.257Z" fill="#263238"/>
<path d="M53.4199 111.156C53.4199 111.156 53.5399 111.893 53.6429 112.227C53.6529 112.258 53.7429 112.248 53.8539 112.22C53.8599 112.22 53.8639 112.22 53.8669 112.22C54.1699 112.184 54.4569 112.064 54.6965 111.875C54.9361 111.687 55.1189 111.435 55.2249 111.149C55.2379 111.109 55.1849 111.088 55.1609 111.118C54.8255 111.54 54.3629 111.842 53.8419 111.979C53.7899 111.894 53.6779 110.71 53.6239 110.722C53.3738 110.823 53.1383 110.958 52.9239 111.122C52.6239 109.594 52.5799 108.031 52.2639 106.514C52.2612 106.503 52.2548 106.494 52.2458 106.487C52.2369 106.481 52.226 106.477 52.2149 106.478C52.2038 106.479 52.1933 106.483 52.1851 106.49C52.1769 106.498 52.1715 106.508 52.1699 106.519C52.1703 108.196 52.3378 109.868 52.6699 111.512C52.6949 111.716 53.3039 111.254 53.4199 111.156Z" fill="#263238"/>
<path d="M62.2729 107.448C60.4669 107.954 58.1979 102.631 57.9259 101.974C58.2887 102.879 58.5532 103.82 58.7149 104.781C58.522 104.838 58.3209 104.863 58.1199 104.854C58.0324 104.584 57.9244 104.321 57.7969 104.067C57.7429 103.946 57.8359 104.354 57.9239 104.867C57.8139 104.867 57.6939 104.873 57.5649 104.88C57.4006 104.296 57.1591 103.736 56.8469 103.216C56.8729 103.782 56.9371 104.345 57.0389 104.902C55.3734 104.942 53.7174 105.166 52.1009 105.569C51.6499 105.694 51.2679 105.822 50.9329 105.947C50.7179 105.281 50.5679 104.547 50.5679 104.714C50.5632 105.16 50.6024 105.605 50.6849 106.043C50.5039 106.112 50.3369 106.179 50.1849 106.243C49.8389 105.315 49.8069 103.668 49.7299 103.943C49.509 104.795 49.4513 105.681 49.5599 106.554C48.9599 106.883 48.8189 107.066 48.7489 106.905C48.3502 104.987 48.6469 102.99 49.5859 101.271C51.1479 98.458 55.4319 96.51 58.9739 98.947C60.4534 99.3882 61.7101 100.375 62.4899 101.707C63.5079 103.774 63.3159 107.154 62.2729 107.448Z" fill="#263238"/>
<path d="M61.236 107.785C61.236 107.785 62.05 105.137 63.204 105.359C64.358 105.581 64.232 109.081 63.219 109.88C63.0961 109.992 62.952 110.077 62.7952 110.132C62.6384 110.186 62.4723 110.208 62.3067 110.197C62.1412 110.185 61.9796 110.14 61.8319 110.065C61.6841 109.989 61.5532 109.885 61.447 109.757L61.236 107.785Z" fill="#FFC3BD"/>
<path d="M63.143 106.361C63.161 106.353 63.173 106.378 63.159 106.39C62.8481 106.694 62.6045 107.06 62.4438 107.464C62.2831 107.867 62.2089 108.301 62.226 108.735C62.2468 108.639 62.2882 108.549 62.3472 108.47C62.4063 108.392 62.4817 108.327 62.5682 108.281C62.6547 108.234 62.7503 108.207 62.8483 108.201C62.9464 108.195 63.0445 108.21 63.136 108.246C63.162 108.254 63.152 108.294 63.128 108.296C62.9717 108.297 62.8194 108.346 62.692 108.437C62.5647 108.527 62.4686 108.655 62.417 108.803C62.3323 109.05 62.2743 109.306 62.244 109.566C62.229 109.65 62.087 109.654 62.087 109.566V109.545C61.731 108.52 62.071 106.82 63.143 106.361Z" fill="#263238"/>
<path d="M69.5499 118.463C75.4919 125.84 83.6079 138.374 80.2149 141.298C74.6369 146.105 58.0789 149.198 54.2759 149.751C52.6339 149.989 49.0759 139.311 50.1409 137.892C51.2059 136.473 68.7589 135.063 68.8559 133.981C68.9109 133.368 67.3559 128.155 65.4789 121.668C63.3159 114.188 67.8499 116.352 69.5499 118.463Z" fill="#FFC3BD"/>
<path d="M52.9989 136.935C52.9989 136.935 47.9539 137.019 44.6579 137.23C42.5068 137.326 40.3847 137.765 38.3719 138.53C36.4099 139.583 28.8719 145.242 30.2089 147.097C31.4149 148.777 37.2699 143.097 37.2699 143.097C37.2699 143.097 30.8549 148.309 32.6799 150.065C34.5049 151.821 40.2649 144.52 40.2649 144.52C40.2649 144.52 33.7939 150.02 35.9649 151.536C37.6029 152.68 43.1929 146.362 43.1929 146.362C43.1929 146.362 37.6639 151.131 39.2979 152.379C41.1039 153.759 46.6299 148.25 46.6299 148.25C51.3179 150.725 54.5619 149.985 56.8069 149.185C57.3479 148.992 52.9989 136.935 52.9989 136.935Z" fill="#FFC3BD"/>
<path d="M39.3729 141.153C38.5969 141.738 37.8079 142.325 37.0869 142.977C36.3659 143.629 35.6669 144.307 35.0099 145.022C34.1327 145.941 33.364 146.958 32.7189 148.052C34.0812 146.286 35.6059 144.65 37.2729 143.168C37.9919 142.518 38.6789 141.831 39.3989 141.179C39.4149 141.158 39.3919 141.139 39.3729 141.153Z" fill="#263238"/>
<path d="M41.7739 143.714C40.8159 144.504 39.8359 145.253 38.9119 146.085C37.9879 146.917 37.1939 147.78 36.3339 148.669C36.2679 148.738 36.3259 148.751 36.3959 148.684C37.2909 147.829 38.1829 147.109 39.0869 146.265C39.9909 145.421 40.8629 144.542 41.7939 143.735C41.8089 143.722 41.7879 143.701 41.7739 143.714Z" fill="#263238"/>
<path d="M44.2299 145.541C42.731 146.717 41.3571 148.044 40.1299 149.501C40.0669 149.572 40.1449 149.58 40.2129 149.511C41.5499 148.169 42.5899 147.111 44.2679 145.593C44.2959 145.57 44.2619 145.517 44.2299 145.541Z" fill="#263238"/>
<path d="M56.7519 136.292C56.0439 136.304 54.5589 136.632 52.9039 136.741C49.1789 136.985 43.9039 137.095 42.0269 137.241C36.9569 137.622 33.9579 141.441 32.5649 142.781C31.7319 143.595 30.981 144.488 30.3229 145.449C29.9809 145.97 29.6599 146.709 30.1459 147.266C30.7369 147.944 32.8749 147.157 35.0639 145.078C35.1429 145.003 35.0909 144.959 35.0099 145.028C31.9309 147.65 30.6719 147.387 30.3339 146.959C30.1149 146.682 30.3079 146.19 30.4889 145.812C30.7821 145.266 31.144 144.759 31.5659 144.305C32.9673 142.724 34.526 141.289 36.2179 140.023C38.0348 138.596 40.2196 137.715 42.5179 137.482C44.1499 137.308 49.1759 137.232 52.9299 136.955C54.5739 136.833 56.0499 136.471 56.7629 136.385C56.8119 136.373 56.8059 136.291 56.7519 136.292Z" fill="#263238"/>
<path d="M77.1369 127.821L66.4259 128.027C65.7009 125.329 65.1171 122.596 64.6769 119.837C64.1979 115.884 65.5539 114.779 69.1859 118.037C71.6159 120.224 77.1369 127.821 77.1369 127.821Z" fill="#346AE1"/>
<path d="M67.7329 128.005C67.6179 127.986 66.5169 127.971 66.4329 127.993C66.2849 127.377 65.5569 124.505 65.4709 124.208C65.47 124.204 65.4683 124.2 65.4658 124.196C65.4633 124.193 65.4601 124.189 65.4565 124.187C65.4528 124.185 65.4487 124.183 65.4444 124.182C65.4401 124.182 65.4357 124.182 65.4314 124.182C65.4272 124.183 65.4231 124.185 65.4195 124.188C65.4159 124.19 65.4129 124.193 65.4105 124.197C65.4081 124.201 65.4065 124.205 65.4057 124.209C65.4049 124.213 65.405 124.218 65.4059 124.222C65.4379 124.396 65.5569 125.059 65.6959 125.801L65.6789 125.772C65.6049 125.642 65.5209 125.516 65.4389 125.39C65.3569 125.264 65.2879 125.117 65.2149 124.981C65.1929 124.939 65.1269 124.981 65.1509 125.02C65.2259 125.149 65.3089 125.277 65.3729 125.413C65.4369 125.549 65.4899 125.67 65.5559 125.795C65.6219 125.92 65.6889 126.042 65.7559 126.166L65.7659 126.184C65.9249 127.021 66.0949 127.871 66.1829 128.184C66.7002 128.171 67.2162 128.126 67.7279 128.05C67.7549 128.039 67.7509 128.008 67.7329 128.005Z" fill="#263238"/>
<path d="M76.0319 126.826C74.4709 126.748 72.9129 126.693 71.3499 126.707C70.5699 126.714 69.7906 126.732 69.0119 126.763C68.2339 126.794 67.4569 126.905 66.6799 126.924C66.6369 126.924 66.6419 126.994 66.6799 126.991C67.4539 126.931 68.2439 126.976 69.0209 126.958C69.7979 126.94 70.5799 126.926 71.3599 126.917C72.9169 126.898 74.4749 126.876 76.0319 126.893C76.0809 126.893 76.0729 126.828 76.0319 126.826Z" fill="#263238"/>
<path d="M73.1379 122.47C73.1349 122.467 73.1311 122.466 73.1271 122.466C73.1231 122.466 73.1193 122.467 73.1162 122.47C73.1131 122.472 73.111 122.476 73.1102 122.48C73.1094 122.483 73.11 122.488 73.1119 122.491C73.3449 122.956 76.1319 126.764 77.0209 127.751C76.7429 127.765 76.466 127.796 76.1919 127.845C76.5557 127.877 76.9216 127.88 77.2859 127.854C77.3059 127.846 73.5399 122.815 73.1379 122.47Z" fill="#263238"/>
<path d="M61.146 85.575C60.1272 87.5763 58.5684 89.2522 56.646 90.413C54.5966 89.4952 52.8456 88.0211 51.592 86.158C50.269 83.85 50.859 81.233 52.683 80.558C55.299 79.589 56.267 84.19 56.267 84.19C56.267 84.19 56.667 79.506 59.385 80.15C61.276 80.597 62.179 83.124 61.146 85.575Z" fill="#FFC727"/>
<path d="M48.087 77.555C48.1619 79.3887 47.7216 81.2068 46.816 82.803C44.9899 82.9693 43.1538 82.6205 41.516 81.796C39.65 80.682 39.022 78.581 40.052 77.37C41.528 75.633 44.059 78.522 44.059 78.522C44.059 78.522 42.469 75.022 44.659 74.396C46.187 73.957 47.842 75.395 48.087 77.555Z" fill="#FFC727"/>
<path d="M64.812 53.305C64.887 55.139 64.4467 56.9574 63.541 58.554C61.715 58.7201 59.8789 58.3713 58.241 57.547C56.374 56.433 55.747 54.332 56.776 53.121C58.252 51.383 60.783 54.273 60.783 54.273C60.783 54.273 59.194 50.773 61.383 50.146C62.911 49.708 64.566 51.146 64.812 53.305Z" fill="#FFC727"/>
<path d="M57.827 66.729C57.0384 67.8032 55.9644 68.6347 54.727 69.129C53.6153 68.3969 52.7315 67.3676 52.176 66.158C51.622 64.682 52.216 63.207 53.348 62.986C54.971 62.669 55.098 65.452 55.098 65.452C55.098 65.452 55.779 62.752 57.307 63.386C58.378 63.829 58.665 65.393 57.827 66.729Z" fill="#FFC727"/>
<path d="M50.447 45.552C50.2938 46.3381 49.9235 47.0656 49.378 47.652C48.5857 47.5382 47.8412 47.2046 47.229 46.689C47.0737 46.5752 46.9445 46.4294 46.8501 46.2615C46.7557 46.0937 46.6983 45.9076 46.6818 45.7157C46.6652 45.5239 46.6898 45.3307 46.754 45.1491C46.8182 44.9676 46.9205 44.8018 47.054 44.663C47.854 44.075 48.638 45.557 48.638 45.557C48.638 45.557 48.316 43.913 49.311 43.867C50.004 43.834 50.56 44.611 50.447 45.552Z" fill="#FFC727"/>
</svg>
